<svg xmlns="http://www.w3.org/2000/svg" width="1280" height="720" viewBox="0 0 1280 720" role="img" aria-labelledby="title desc">
  <title id="title">AgentDesk workflow canvas placeholder</title>
  <desc id="desc">A stylized placeholder for the AgentDesk visual workflow canvas.</desc>
  <rect width="1280" height="720" fill="#eef4ff"/>
  <rect x="30" y="30" width="280" height="660" rx="8" fill="#ffffff" stroke="#dbe4f0"/>
  <rect x="330" y="30" width="610" height="660" rx="8" fill="#f8fafc" stroke="#dbe4f0"/>
  <rect x="960" y="30" width="290" height="660" rx="8" fill="#ffffff" stroke="#dbe4f0"/>
  <text x="60" y="82" fill="#0f172a" font-family="Arial" font-size="34" font-weight="700">AgentDesk</text>
  <text x="60" y="118" fill="#64748b" font-family="Arial" font-size="18">Local agent workbench</text>
  <g fill="#ffffff" stroke="#2563eb" stroke-width="3">
    <rect x="390" y="160" width="160" height="80" rx="8"/>
    <rect x="620" y="110" width="160" height="80" rx="8"/>
    <rect x="620" y="270" width="160" height="80" rx="8"/>
    <rect x="800" y="190" width="100" height="80" rx="8"/>
  </g>
  <g stroke="#7c3aed" stroke-width="4" fill="none">
    <path d="M550 200 C585 200 585 150 620 150"/>
    <path d="M550 200 C585 200 585 310 620 310"/>
    <path d="M780 150 C800 150 780 230 800 230"/>
    <path d="M780 310 C800 310 780 230 800 230"/>
  </g>
  <text x="412" y="208" fill="#0f172a" font-family="Arial" font-size="18" font-weight="700">Trigger</text>
  <text x="642" y="158" fill="#0f172a" font-family="Arial" font-size="18" font-weight="700">Model</text>
  <text x="642" y="318" fill="#0f172a" font-family="Arial" font-size="18" font-weight="700">MCP Tool</text>
  <text x="820" y="238" fill="#0f172a" font-family="Arial" font-size="18" font-weight="700">Trace</text>
  <text x="995" y="80" fill="#0f172a" font-family="Arial" font-size="24" font-weight="700">Replay Trace</text>
  <rect x="995" y="115" width="220" height="70" rx="8" fill="#eff6ff" stroke="#bfdbfe"/>
  <rect x="995" y="205" width="220" height="70" rx="8" fill="#f5f3ff" stroke="#ddd6fe"/>
  <rect x="995" y="295" width="220" height="70" rx="8" fill="#ecfeff" stroke="#a5f3fc"/>
</svg>
